<?xml version="1.0" encoding="UTF-8"?>
<svg id="Calque_2" xmlns="http://www.w3.org/2000/svg" version="1.1" viewBox="0 0 3307.1 3307.1">
  <!-- Generator: Adobe Illustrator 29.1.0, SVG Export Plug-In . SVG Version: 2.1.0 Build 142)  -->
  <defs>
    <style>
      .st0 {
        fill: none;
        stroke: #fff;
        stroke-miterlimit: 10;
        stroke-width: 25px;
      }

      .st1 {
        fill: #fff;
      }
    </style>
  </defs>
  <path class="st1" d="M2099.6,3157.9c-157.7,0-306.8-27.3-447.3-82s-266.5-134.4-378.2-239.2c-61-56.4-112.8-117.4-155.4-183.1l207.2-112.3c34.5,48.4,76,93.9,124.3,136.4,57.6,51.8,119.2,95.6,184.8,131.3,72.5,38,146.2,66.2,221.1,84.6,80.6,19.6,161.8,29.4,243.5,29.4,125.5,0,245.2-21.9,359.2-65.6,111.7-44.9,210.1-105.4,295.3-181.3,82.9-73.7,149.7-163.5,200.3-269.4,49.5-102.5,74.3-212.4,74.3-329.9s-9.8-142.2-29.4-226.2c-12.7-50.6-28.8-97.9-48.4-141.6-50.6-102.5-118-191.7-202.1-267.7-84-77.1-181.9-137.6-293.6-181.3-116.3-44.9-236-67.4-359.2-67.4s-161.2,9.8-241.8,29.4c-77.1,18.4-150.3,46.1-219.3,82.9-64.5,33.4-127.2,77.2-188.2,131.3-43.7,38-84.6,82.9-122.6,134.7l-207.2-115.7c44.9-63.3,97.3-122.6,157.2-177.9,73.7-66.8,153.1-123.2,238.3-169.3,180.8-101.3,375.4-152,583.7-152s372.5,38,530.2,114c104.8,51.8,202.7,120.3,293.6,205.5,111.7,104.8,196.9,227.4,255.6,367.9,58.7,138.2,88.1,282.7,88.1,433.5,0,298.2-112.8,552.7-338.5,763.4-226.8,211.9-502,317.8-825.5,317.8v-.2Z"/>
  <path class="st0" d="M382,2033.4c-225.7-210.7-338.5-465.1-338.5-763.4s29.4-295.3,88.1-433.5c58.7-140.5,143.9-263.1,255.6-367.9,90.9-85.2,188.8-153.7,293.6-205.5,157.7-76,334.5-114,530.2-114s403,50.7,583.7,152c85.2,46.1,164.6,102.5,238.3,169.3,59.9,55.3,112.3,114.6,157.2,177.9l-207.2,115.7c-38-51.8-78.9-96.7-122.6-134.7-61-54.1-123.8-97.9-188.2-131.3-69.1-36.8-142.2-64.5-219.3-82.9-80.6-19.6-161.2-29.4-241.8-29.4-123.2,0-243,22.5-359.2,67.4-111.7,43.8-209.6,104.2-293.6,181.3-84.1,76-151.4,165.2-202.1,267.7-19.6,43.8-35.7,91-48.4,141.6-19.6,84.1-29.4,159.5-29.4,226.2,0,117.4,24.7,227.4,74.3,329.9,50.6,105.9,117.4,195.7,200.3,269.4,85.2,76,183.6,136.4,295.3,181.3,114,43.8,233.7,65.6,359.2,65.6s162.9-9.8,243.5-29.4c74.8-18.4,148.5-46.6,221.1-84.6,65.6-35.7,127.2-79.4,184.8-131.3,48.4-42.6,89.8-88.1,124.3-136.4l207.2,112.3c-42.6,65.6-94.4,126.7-155.4,183.1-111.7,104.8-237.8,184.5-378.2,239.2-140.5,54.7-289.6,82-447.3,82-323.5,0-598.7-105.9-825.5-317.8v.2Z"/>
</svg>